<?xml version="1.0" encoding="utf-8"?>
<!-- Generator: Adobe Illustrator 26.0.1, SVG Export Plug-In . SVG Version: 6.00 Build 0)  -->
<svg version="1.1" id="Calque_1" xmlns="http://www.w3.org/2000/svg" xmlns:xlink="http://www.w3.org/1999/xlink" x="0px" y="0px"
	 viewBox="0 0 652.1 652.1" style="enable-background:new 0 0 652.1 652.1;" xml:space="preserve">
<style type="text/css">
	.st0{fill:url(#SVGID_1_);}
	.st1{opacity:0.1;clip-path:url(#SVGID_00000085248727138816274900000004577653599986178741_);fill:#1D1D1B;}
	.st2{fill:#FFFFFF;}
	.st3{opacity:5.000000e-02;clip-path:url(#SVGID_00000039092419896856338660000006829959230807193752_);fill:#1D1D1B;}
	.st4{opacity:0.3;clip-path:url(#SVGID_00000039092419896856338660000006829959230807193752_);}
	.st5{fill-rule:evenodd;clip-rule:evenodd;fill:#FFFFFF;}
	.st6{fill-rule:evenodd;clip-rule:evenodd;fill:#E4DDD7;}
	.st7{fill:url(#SVGID_00000139978072993626984570000006205750938370588032_);}
</style>
<g>
	<linearGradient id="SVGID_1_" gradientUnits="userSpaceOnUse" x1="63.5362" y1="70.6758" x2="581.5284" y2="588.6681">
		<stop  offset="0" style="stop-color:#FFAF00"/>
		<stop  offset="0.9984" style="stop-color:#F83F00"/>
	</linearGradient>
	<path class="st0" d="M537.9,606.8H107.1c-34,0-61.7-27.8-61.7-61.7V114.3c0-34,27.8-61.7,61.7-61.7h430.8c34,0,61.7,27.8,61.7,61.7
		v430.8C599.7,579,571.9,606.8,537.9,606.8z"/>
	<g>
		<defs>
			<path id="SVGID_00000160176240890338473390000013154849330188838574_" d="M537.9,606.8H107.1c-34,0-61.7-27.8-61.7-61.7V114.3
				c0-34,27.8-61.7,61.7-61.7h430.8c34,0,61.7,27.8,61.7,61.7v430.8C599.7,579,571.9,606.8,537.9,606.8z"/>
		</defs>
		<clipPath id="SVGID_00000018926841060254907270000001074923991091169922_">
			<use xlink:href="#SVGID_00000160176240890338473390000013154849330188838574_"  style="overflow:visible;"/>
		</clipPath>
		<path style="opacity:0.1;clip-path:url(#SVGID_00000018926841060254907270000001074923991091169922_);fill:#1D1D1B;" d="
			M469.7,682.2c-17.6,0-34.1-6.8-46.5-19.2L136.3,376.2c-12.4-12.4-19.2-28.9-19.2-46.5s6.8-34.1,19.2-46.5L276,143.5
			c12.4-12.4,28.9-19.2,46.5-19.2s34.1,6.8,46.5,19.2l286.9,286.9c12.4,12.4,19.2,28.9,19.2,46.5s-6.8,34.1-19.2,46.5L516.2,663
			C503.8,675.4,487.3,682.2,469.7,682.2z"/>
	</g>
	<path class="st2" d="M508.8,283.2L369,143.5c-12.4-12.4-28.9-19.2-46.5-19.2s-34.1,6.8-46.5,19.2L136.3,283.2
		c-12.4,12.4-19.2,28.9-19.2,46.5s6.8,34.1,19.2,46.5L276,515.9c12.4,12.4,28.9,19.2,46.5,19.2s34.1-6.8,46.5-19.2l139.7-139.7
		c12.4-12.4,19.2-28.9,19.2-46.5S521.1,295.6,508.8,283.2z"/>
	<g>
		<defs>
			<path id="SVGID_00000089550426378318955900000007622946762463643836_" d="M508.8,283.2L369,143.5c-12.4-12.4-28.9-19.2-46.5-19.2
				s-34.1,6.8-46.5,19.2L136.3,283.2c-12.4,12.4-19.2,28.9-19.2,46.5s6.8,34.1,19.2,46.5L276,515.9c12.4,12.4,28.9,19.2,46.5,19.2
				s34.1-6.8,46.5-19.2l139.7-139.7c12.4-12.4,19.2-28.9,19.2-46.5S521.1,295.6,508.8,283.2z"/>
		</defs>
		<clipPath id="SVGID_00000010302161803470591760000012490970714907767231_">
			<use xlink:href="#SVGID_00000089550426378318955900000007622946762463643836_"  style="overflow:visible;"/>
		</clipPath>
		
			<polygon style="opacity:5.000000e-02;clip-path:url(#SVGID_00000010302161803470591760000012490970714907767231_);fill:#1D1D1B;" points="
			322.5,416.9 403.9,498.3 516,409.7 361,254.7 352.5,346.7 292,339.7 		"/>
		<g style="opacity:0.3;clip-path:url(#SVGID_00000010302161803470591760000012490970714907767231_);">
			<polygon class="st5" points="142.4,122.8 566.2,122.8 696.4,540.4 10.6,540.4 			"/>
			<polygon class="st6" points="142.4,122.8 566.2,122.8 696.4,540.4 10.6,540.4 			"/>
			<path class="st5" d="M579.3,164.6c-3.4,17.8-7.4,35.6-12.1,53.2c-8.8,32.9-20.2,65.4-32.6,98.1c7,1.9,13.8,3.8,20.8,5.8
				c12.1-33.7,23.4-67.2,31.6-101c1.5-6,2.8-12,4.1-18L579.3,164.6z"/>
			<path class="st2" d="M571.6,306.4c10.9,21.4,32.5,59.9,83.5,101.1l9,28.8c-9.5-6.3-18.3-12.5-26.4-18.7
				c-54.6-44.4-76.7-85.5-87.7-108.3C557,308.4,564.2,307.4,571.6,306.4z"/>
			<path class="st5" d="M606.9,253.3c-43.1,32-90.5,63.5-143.2,93.3C343.3,414.8,201.2,475.8,43.9,540.4h42.9
				C234.3,479,368.1,420.9,482.5,356.1c47.4-26.9,90.7-55.1,130.4-83.8L606.9,253.3z"/>
			<path class="st5" d="M601.9,540.4c-14.3-69.9-28.8-139.7-43.1-209.6c-14.2-69.3-28.3-138.7-42.5-208h-16.7
				c12.6,69.4,24.9,138.7,37.5,208c12.7,69.9,25.4,139.7,38,209.6H601.9z"/>
			<polygon class="st5" points="622,301.8 372.3,301.8 85.9,301.8 81.2,316.6 372.3,316.6 626.7,316.6 			"/>
			<path class="st5" d="M535.4,265.6c32.8,0,64.6,19.6,71,43.6c6.3,24.1-17.7,43.6-54,43.6c-36.3,0-68.3-19.6-71.2-43.6
				C478.3,285.1,502.6,265.6,535.4,265.6z"/>
			<path class="st6" d="M538.2,279.8c22.5,0,43.9,13.2,47.8,29.4c3.9,16.2-12.3,29.4-36.4,29.4c-24.1,0-45.5-13.2-47.9-29.4
				C499.3,293,515.7,279.8,538.2,279.8z"/>
			<path class="st5" d="M49.7,416.3c44.7-11.1,88.5-22.3,131.2-33.4c-2-4.6-3.7-9.1-5.6-13.7c-39.4,10.3-79.6,20.8-120.6,31.1
				L49.7,416.3z"/>
			<path class="st5" d="M150.6,517c5.8-4.1,11.5-8.1,17.2-12.2c-44.6-17.8-87.7-35.6-129.1-53.5l-5.6,17.6
				C70.9,484.9,110,500.9,150.6,517z"/>
			<path class="st5" d="M42.1,455.8c1.5,4.6,3.3,9.2,5.1,13.7c52.9-14.2,104.7-28.4,155.1-42.6c-2.3-4.6-4.4-9.1-6.5-13.7
				C145.8,427.4,94.6,441.6,42.1,455.8z"/>
			<path class="st5" d="M70.5,350.4c17.7-2.4,35.4-4.8,52.9-7.1c0.6-4.9,1.2-9.8,1.9-14.7c-16.6,2.3-33.3,4.6-50.1,6.9L70.5,350.4z"
				/>
			<path class="st5" d="M88.7,300.2c1,4.6,2.3,9.2,3.4,13.7c31.3-19.5,61.4-38.7,90.2-58.5c27.9-19.2,54.3-39,79.8-58.6
				c-1.6-4.6-3.1-9.1-4.7-13.7c-25.2,19.5-51.6,39.3-79.2,58.6C149.7,261.4,119.6,280.7,88.7,300.2z"/>
			<path class="st5" d="M178.4,254c5.7-4.3,11.5-8.7,17.3-13.1c-29.1-4.7-57.8-9.4-86.1-14.2l-4.8,15.3C129,246,153.5,250,178.4,254
				z"/>
			<path class="st5" d="M128.5,166.9c18-14.7,35.4-29.5,52.3-44.2h-17.6c-9.3,7.9-18.7,15.8-28.2,23.7L128.5,166.9z"/>
			<path class="st5" d="M122.3,289.6c6-4.4,12.2-8.8,18.4-13.1c-14.9-2.5-29.7-5.1-44.4-7.6l-4.9,15.5
				C101.7,286.1,112,287.8,122.3,289.6z"/>
			<path class="st5" d="M311.3,198.7c5,2.3,10,4.6,15,6.9c32.1-27.6,61.8-55.2,89.4-82.9h-20.9C368.9,148.1,341.1,173.4,311.3,198.7
				z"/>
			<path class="st5" d="M364,166c4.4-4.3,8.6-8.7,12.7-13.1c-35.2-5-69.9-10.1-104.1-15.2c-33.2-4.9-65.8-10-97.9-15h-2
				c-5.2,4.3-10.5,8.6-15.8,12.8c33.3,5.1,67.1,10.3,101.3,15.3C293,156,328.2,161,364,166z"/>
			<path class="st5" d="M291.5,145c5.7,1.9,11.6,3.8,17.4,5.6c7-9.3,13.8-18.5,20.5-27.8h-21.1C302.7,130.2,297.2,137.6,291.5,145z"
				/>
			<path class="st5" d="M592.4,514.7c-1.3-4.9-2.7-9.8-4-14.8c-62.2-4.6-123.8-9.4-184.7-14c-60.3-4.6-120.3-9.4-179.5-14.1
				c-0.3,5-0.8,9.9-1.2,14.8c60.1,4.7,121,9.4,182.3,14.1C467,505.4,529.6,510,592.4,514.7z"/>
			<path class="st5" d="M649.5,420.4c3.4,0.9,6.9,1.9,10.4,2.8l-4-12.7C653.8,413.8,651.7,417.1,649.5,420.4z"/>
			<path class="st5" d="M657.9,416.7l-18,1.1c8,20.7,16.2,41.4,24.5,62c8.1,20.2,16.6,40.3,25.1,60.5h7L657.9,416.7z"/>
			<path class="st5" d="M683.9,500.1c-33.9,0.7-67.9,1.5-101.8,2.2c1.3,5,2.6,9.9,4,14.8c34.2-0.7,68.4-1.4,102.5-2.2L683.9,500.1z"
				/>
			<path class="st5" d="M655.9,410.5c-29.8,9.7-60.4,19.5-91.6,29.2c1.6,6.9,3.3,13.7,4.9,20.5c31.7-9.6,62.7-19.3,93.2-29
				L655.9,410.5z"/>
			<path class="st5" d="M570.6,222.2c1.7,5.5,3.6,11,5.4,16.5l26.1-0.9l-4.8-15.5C588.4,222.3,579.5,222.2,570.6,222.2z"/>
			<path class="st6" d="M327.8,439.2c15.5,1.3,31.1,2.7,46.6,4c-21.9,11.7-44.3,23.4-67,35.1c-20.4-1.6-40.7-3.2-61-4.8
				C274.1,462.2,301.2,450.7,327.8,439.2z"/>
			<path class="st6" d="M187.7,251.6c-24.5,16.8-50,33.5-76.2,50.2c41.2,0,82.4,0,123.5,0s82.5,0,123.8,0c0-16.4,0.1-32.8,0.3-49.2
				C301.9,252.3,244.8,251.9,187.7,251.6z"/>
			<path class="st6" d="M63.4,372.9c8.2,6.5,16.6,13.1,25.2,19.6c23.1-6.2,45.9-12.3,68.6-18.5c-11.6-10.2-22.8-20.5-33.7-30.8
				c-17.6,2.4-35.3,4.8-52.9,7.2L63.4,372.9z"/>
			<path class="st6" d="M241.2,195.7c-9.2,7-18.5,14-28,21c-32.2-5.3-64.1-10.6-95.4-16l7.8-24.7
				C163.4,182.6,201.9,189.2,241.2,195.7z"/>
			<path class="st6" d="M33,469.4c4.1,1.8,8.3,3.5,12.5,5.3c-5.4,2.2-10.8,4.4-16.2,6.5L33,469.4z"/>
			<path class="st5" d="M116.5,231.4c-2.6-0.4-5.3-0.9-8-1.3l-3.3,10.4C109,237.5,112.8,234.4,116.5,231.4z"/>
			<path class="st5" d="M92.8,279.8c6.5-7.4,13.2-14.6,20.3-21.6c27-26.9,57.8-51.7,95.4-72.7c31.3-18.6,74.9-41.3,118.3-62.7h148.1
				c-22.7,12.5-37.1,20.7-58.7,30.4c-49.3,22-96.1,51.9-135.2,87.3c-40.9,37.1-72.8,79.5-82.6,128.8c-6.3,32-17.5,63.6-33.7,94.3
				c-13.9,26.1-32.1,51.7-53.8,76.8H10.6L92.8,279.8z"/>
			<path class="st6" d="M82,540.4c21.2-23.3,40-47.8,54.9-73.6c17.7-30.7,30.9-63.4,38.5-97.6c15.2-68.2,62.2-118.4,116.6-159.3
				c48.9-36.9,104.1-65.4,154.8-87.1h-97.6c-50.8,22.5-102.2,51-150.1,85.6c-47.3,34.2-90.9,74.2-122.7,123.9L26.7,489.2
				c19-18.8,36-38.8,50.8-59.6c-8.3,23.5-19.3,45.7-32.7,66.3c-9.9,15.2-21.3,29.6-33.9,43.4l-0.3,1.1H82z"/>
			<path class="st5" d="M530.5,240.5c-0.7-4.9-1.5-9.8-2.2-14.8c-92.8-14.1-182.4-27.9-268.4-42.2c-44.2-7.4-87.4-14.9-129.6-22.4
				l-4.7,15c42.9,7.5,86.8,15,131.5,22.3C344.9,212.6,436.2,226.4,530.5,240.5z"/>
		</g>
	</g>
	<g>
		<g>
			
				<linearGradient id="SVGID_00000147205368763621301490000009721382667606620802_" gradientUnits="userSpaceOnUse" x1="272.3084" y1="266.2198" x2="372.7558" y2="366.6672">
				<stop  offset="0" style="stop-color:#FFAF00"/>
				<stop  offset="0.9984" style="stop-color:#F83F00"/>
			</linearGradient>
			<path style="fill:url(#SVGID_00000147205368763621301490000009721382667606620802_);" d="M322.5,242.5
				c-35.3,0-63.9,28.6-63.9,63.9c0,37.7,63.9,110.6,63.9,110.6s63.9-70,63.9-110.6C386.4,271.1,357.8,242.5,322.5,242.5z
				 M322.5,331.4c-15.3,0-27.6-12.4-27.6-27.6c0-15.3,12.4-27.6,27.6-27.6c15.3,0,27.6,12.4,27.6,27.6
				C350.2,319,337.8,331.4,322.5,331.4z"/>
		</g>
	</g>
</g>
</svg>
